<?xml version="1.0" encoding="UTF-8"?>
<!DOCTYPE svg PUBLIC "-//W3C//DTD SVG 1.1//EN" "http://www.w3.org/Graphics/SVG/1.1/DTD/svg11.dtd">
<!-- Creator: CorelDRAW -->
<svg xmlns="http://www.w3.org/2000/svg" xml:space="preserve" width="2.32321in" height="0.70487in" version="1.1" style="shape-rendering:geometricPrecision; text-rendering:geometricPrecision; image-rendering:optimizeQuality; fill-rule:evenodd; clip-rule:evenodd"
viewBox="0 0 112.14 34.02"
 xmlns:xlink="http://www.w3.org/1999/xlink"
 xmlns:xodm="http://www.corel.com/coreldraw/odm/2003">
 <defs>
  <style type="text/css">
   <![CDATA[
    .fil1 {fill:#04116E}
    .fil0 {fill:#04116E;fill-rule:nonzero}
   ]]>
  </style>
 </defs>
 <g id="Layer_x0020_1">
  <metadata id="CorelCorpID_0Corel-Layer"/>
  <g id="_2600096934032">
   <path class="fil0" d="M36.79 29.43l0 -4.96 0.89 0 0 4.96 -0.89 0zm0.36 0l0 -0.86 2.41 0 0 0.86 -2.41 0zm0 -2.03l0 -0.87 2.13 0 0 0.86 -2.13 0zm0 -2.07l0 -0.86 2.41 0 0 0.86 -2.41 0z"/>
   <path id="_1" class="fil0" d="M41.91 29.43l-0.81 -1.53 -1.15 -2 0.96 0 0.73 1.51 1.22 2.03 -0.95 0 0 0zm-2.01 0l1.16 -1.96 0.47 0.66 -0.69 1.3 -0.94 0 -0 0zm1.84 -1.63l-0.45 -0.68 0.56 -1.23 0.96 0 -1.07 1.91z"/>
   <path id="_2" class="fil0" d="M44.52 29.49c-0.43,0 -0.76,-0.12 -1,-0.34 -0.24,-0.23 -0.36,-0.55 -0.36,-0.96l0 -1.01c0,-0.42 0.12,-0.75 0.36,-0.98 0.24,-0.23 0.57,-0.34 1,-0.35 0.37,0 0.65,0.08 0.85,0.24 0.2,0.16 0.33,0.41 0.39,0.75l-0 0 -0.81 0.27 0 0c-0.03,-0.15 -0.08,-0.26 -0.15,-0.33 -0.07,-0.07 -0.16,-0.1 -0.28,-0.1 -0.14,0 -0.25,0.05 -0.33,0.14 -0.08,0.09 -0.12,0.22 -0.13,0.39l0 0.95c0,0.16 0.05,0.28 0.13,0.37 0.08,0.09 0.19,0.13 0.33,0.14 0.11,0 0.2,-0.03 0.27,-0.1 0.07,-0.07 0.12,-0.17 0.15,-0.31l-0 -0 0.82 0.29 -0 -0c-0.05,0.33 -0.18,0.57 -0.39,0.72 -0.2,0.15 -0.49,0.23 -0.85,0.23z"/>
   <path id="_3" class="fil0" d="M47.59 29.49c-0.43,0 -0.77,-0.12 -1.01,-0.35 -0.24,-0.23 -0.36,-0.56 -0.36,-0.98l0 -0.91c0,-0.45 0.12,-0.79 0.35,-1.03 0.23,-0.24 0.56,-0.37 0.98,-0.37 0.41,0 0.73,0.13 0.95,0.4 0.23,0.27 0.34,0.65 0.34,1.14l0 0.62 -1.97 -0 0 -0.62 1.13 0 0 -0.25c0,-0.15 -0.04,-0.27 -0.13,-0.36 -0.08,-0.09 -0.19,-0.13 -0.33,-0.13 -0.15,0 -0.27,0.05 -0.36,0.15 -0.08,0.1 -0.13,0.24 -0.13,0.42l0 0.96c0,0.17 0.05,0.3 0.13,0.39 0.09,0.09 0.22,0.14 0.38,0.14 0.12,0 0.22,-0.03 0.3,-0.09 0.08,-0.06 0.14,-0.15 0.18,-0.27l-0 0 0.75 0.28 -0 0c-0.07,0.28 -0.2,0.5 -0.41,0.64 -0.2,0.14 -0.47,0.22 -0.79,0.22l0 -0z"/>
   <path id="_4" class="fil0" d="M50.44 24.48l0 3.84c0,0.08 0.02,0.14 0.07,0.19 0.04,0.05 0.11,0.07 0.19,0.07l0.13 0 0 0.87 -0.4 0c-0.28,0 -0.49,-0.08 -0.65,-0.25 -0.15,-0.16 -0.23,-0.39 -0.23,-0.69l0 -4.02 0.89 0z"/>
   <path id="_5" class="fil0" d="M52.26 24.48l0 3.84c0,0.08 0.02,0.14 0.07,0.19 0.04,0.05 0.11,0.07 0.19,0.07l0.13 0 0 0.87 -0.4 0c-0.28,0 -0.49,-0.08 -0.65,-0.25 -0.15,-0.16 -0.23,-0.39 -0.23,-0.69l0 -4.02 0.89 0z"/>
   <path id="_6" class="fil0" d="M54.47 29.49c-0.43,0 -0.77,-0.12 -1.01,-0.35 -0.24,-0.23 -0.36,-0.56 -0.36,-0.98l0 -0.91c0,-0.45 0.12,-0.79 0.35,-1.03 0.23,-0.24 0.56,-0.37 0.98,-0.37 0.41,0 0.73,0.13 0.95,0.4 0.23,0.27 0.34,0.65 0.34,1.14l0 0.62 -1.97 -0 0 -0.62 1.13 0 0 -0.25c0,-0.15 -0.04,-0.27 -0.13,-0.36 -0.08,-0.09 -0.19,-0.13 -0.33,-0.13 -0.15,0 -0.27,0.05 -0.36,0.15 -0.08,0.1 -0.13,0.24 -0.13,0.42l0 0.96c0,0.17 0.05,0.3 0.13,0.39 0.09,0.09 0.22,0.14 0.38,0.14 0.12,0 0.22,-0.03 0.3,-0.09 0.08,-0.06 0.14,-0.15 0.18,-0.27l-0 0 0.75 0.28 -0 0c-0.07,0.28 -0.2,0.5 -0.41,0.64 -0.2,0.14 -0.47,0.22 -0.8,0.22l0 -0z"/>
   <path id="_7" class="fil0" d="M56.43 29.43l0 -3.54 0.89 0 0 3.54 -0.89 0zm1.72 0l0 -2.32c0,-0.14 -0.04,-0.25 -0.11,-0.33 -0.07,-0.08 -0.18,-0.11 -0.32,-0.11 -0.13,0 -0.24,0.04 -0.3,0.11 -0.07,0.08 -0.1,0.19 -0.1,0.33l-0.07 -0.6c0.09,-0.22 0.2,-0.38 0.34,-0.5 0.14,-0.12 0.31,-0.17 0.51,-0.17 0.3,0 0.52,0.1 0.69,0.31 0.16,0.2 0.25,0.49 0.25,0.86l0 2.43 -0.89 0 -0 -0z"/>
   <path id="_8" class="fil0" d="M61.1 29.49c-0.43,0 -0.76,-0.12 -0.99,-0.34 -0.24,-0.23 -0.36,-0.55 -0.36,-0.96l0 -1.01c0,-0.42 0.12,-0.75 0.36,-0.98 0.24,-0.23 0.57,-0.34 1,-0.35 0.37,0 0.65,0.08 0.85,0.24 0.2,0.16 0.33,0.41 0.39,0.75l-0 0 -0.81 0.27 0 0c-0.03,-0.15 -0.08,-0.26 -0.15,-0.33 -0.07,-0.07 -0.16,-0.1 -0.28,-0.1 -0.14,0 -0.25,0.05 -0.33,0.14 -0.08,0.09 -0.12,0.22 -0.13,0.39l0 0.95c0,0.16 0.05,0.28 0.13,0.37 0.08,0.09 0.19,0.13 0.33,0.14 0.11,0 0.2,-0.03 0.27,-0.1 0.07,-0.07 0.12,-0.17 0.15,-0.31l-0 -0 0.82 0.29 -0 -0c-0.05,0.33 -0.18,0.57 -0.38,0.72 -0.2,0.15 -0.49,0.23 -0.85,0.23z"/>
   <path id="_9" class="fil0" d="M64.17 29.49c-0.43,0 -0.77,-0.12 -1.01,-0.35 -0.24,-0.23 -0.36,-0.56 -0.36,-0.98l0 -0.91c0,-0.45 0.12,-0.79 0.35,-1.03 0.23,-0.24 0.56,-0.37 0.98,-0.37 0.41,0 0.73,0.13 0.95,0.4 0.23,0.27 0.34,0.65 0.34,1.14l0 0.62 -1.97 -0 0 -0.62 1.13 0 0 -0.25c0,-0.15 -0.04,-0.27 -0.13,-0.36 -0.08,-0.09 -0.19,-0.13 -0.33,-0.13 -0.15,0 -0.27,0.05 -0.36,0.15 -0.08,0.1 -0.13,0.24 -0.13,0.42l0 0.96c0,0.17 0.05,0.3 0.13,0.39 0.09,0.09 0.22,0.14 0.38,0.14 0.12,0 0.22,-0.03 0.3,-0.09 0.08,-0.06 0.14,-0.15 0.18,-0.27l-0 0 0.75 0.28 -0 0c-0.07,0.28 -0.2,0.5 -0.41,0.64 -0.2,0.14 -0.47,0.22 -0.8,0.22l0 -0z"/>
   <polygon id="_10" class="fil0" points="65.83,29.43 65.83,28.54 66.72,28.54 66.72,29.43 "/>
   <path id="_11" class="fil0" d="M69.02 29.43l0 -4.96 0.89 0 0 4.96 -0.89 0zm0.36 -1.99l0 -0.86 2.1 0 0 0.86 -2.1 0zm0 -2.11l0 -0.86 2.37 0 0 0.86 -2.37 0z"/>
   <path id="_12" class="fil0" d="M73.46 29.49c-0.41,0 -0.73,-0.11 -0.96,-0.33 -0.23,-0.22 -0.34,-0.53 -0.34,-0.92l0 -1.16c-0,-0.39 0.11,-0.7 0.34,-0.91 0.23,-0.22 0.55,-0.32 0.96,-0.32 0.41,0 0.72,0.11 0.95,0.32 0.23,0.22 0.34,0.52 0.34,0.91l0 1.17c0,0.39 -0.11,0.7 -0.34,0.92 -0.23,0.22 -0.54,0.33 -0.95,0.33zm-0 -0.83c0.13,0 0.23,-0.04 0.3,-0.12 0.07,-0.08 0.11,-0.19 0.11,-0.33l0 -1.1c0,-0.14 -0.03,-0.25 -0.11,-0.32 -0.07,-0.08 -0.17,-0.12 -0.3,-0.11 -0.13,0 -0.23,0.04 -0.3,0.11 -0.07,0.08 -0.11,0.18 -0.11,0.32l0 1.1c0,0.14 0.04,0.25 0.11,0.33 0.07,0.08 0.17,0.12 0.3,0.12l0 0z"/>
   <path id="_13" class="fil0" d="M75.47 29.43l0 -3.54 0.92 0 0 3.54 -0.92 0zm1.84 -2.63c-0.04,-0.02 -0.08,-0.04 -0.13,-0.05 -0.05,-0.01 -0.11,-0.02 -0.17,-0.02 -0.2,0 -0.35,0.06 -0.45,0.18 -0.11,0.12 -0.16,0.29 -0.16,0.5l-0.07 -0.9c0.1,-0.21 0.22,-0.37 0.38,-0.49 0.16,-0.12 0.33,-0.18 0.52,-0.18 0.07,0 0.14,0.01 0.2,0.04 0.06,0.02 0.11,0.06 0.16,0.1l-0.27 0.83 -0 -0z"/>
   <path id="_14" class="fil0" d="M79.71 29.43l0 -4.96 0.89 0 0 4.96 -0.89 0zm0.36 0l0 -0.86 2.41 0 0 0.86 -2.41 0zm0 -2.03l0 -0.87 2.13 0 0 0.86 -2.13 0zm0 -2.07l0 -0.86 2.41 0 0 0.86 -2.41 0z"/>
   <polygon id="_15" class="fil0" points="84.25,28.17 84.83,25.9 85.71,25.9 84.58,29.43 83.92,29.43 82.79,25.9 83.67,25.9 "/>
   <path id="_16" class="fil0" d="M87.41 29.49c-0.43,0 -0.77,-0.12 -1.01,-0.35 -0.24,-0.23 -0.36,-0.56 -0.36,-0.98l0 -0.91c0,-0.45 0.12,-0.79 0.35,-1.03 0.23,-0.24 0.56,-0.37 0.98,-0.37 0.41,0 0.73,0.13 0.95,0.4 0.23,0.27 0.34,0.65 0.34,1.14l0 0.62 -1.97 -0 0 -0.62 1.13 0 0 -0.25c0,-0.15 -0.04,-0.27 -0.13,-0.36 -0.08,-0.09 -0.19,-0.13 -0.33,-0.13 -0.15,0 -0.27,0.05 -0.36,0.15 -0.08,0.1 -0.13,0.24 -0.13,0.42l0 0.96c0,0.17 0.05,0.3 0.13,0.39 0.09,0.09 0.22,0.14 0.38,0.14 0.12,0 0.22,-0.03 0.3,-0.09 0.08,-0.06 0.14,-0.15 0.18,-0.27l-0 0 0.75 0.28 -0 0c-0.07,0.28 -0.2,0.5 -0.41,0.64 -0.2,0.14 -0.47,0.22 -0.79,0.22l0 -0z"/>
   <path id="_17" class="fil0" d="M89.37 29.43l0 -3.54 0.92 0 0 3.54 -0.92 0zm1.84 -2.63c-0.04,-0.02 -0.08,-0.04 -0.13,-0.05 -0.05,-0.01 -0.11,-0.02 -0.17,-0.02 -0.2,0 -0.35,0.06 -0.45,0.18 -0.11,0.12 -0.16,0.29 -0.16,0.5l-0.07 -0.9c0.1,-0.21 0.22,-0.37 0.38,-0.49 0.16,-0.12 0.33,-0.18 0.52,-0.18 0.07,0 0.14,0.01 0.2,0.04 0.06,0.02 0.11,0.06 0.16,0.1l-0.27 0.83 -0 -0z"/>
   <path id="_18" class="fil0" d="M93.69 25.9l0.84 0 -1.26 4.37c-0.07,0.23 -0.18,0.39 -0.34,0.5 -0.16,0.1 -0.38,0.15 -0.67,0.15l-0.24 0 0 -0.87 0.25 0c0.1,0 0.18,-0.02 0.25,-0.06 0.06,-0.04 0.11,-0.12 0.14,-0.24l1.03 -3.84 0 0zm-0.77 3.88l-1.27 -3.88 0.84 0 0.93 3.07 -0.5 0.81 -0 0z"/>
   <path id="_19" class="fil0" d="M98.09 29.49c-0.31,0 -0.59,-0.06 -0.82,-0.18 -0.23,-0.12 -0.41,-0.29 -0.53,-0.52 -0.12,-0.22 -0.19,-0.49 -0.19,-0.79l0 -2.07c0,-0.31 0.06,-0.57 0.19,-0.8 0.13,-0.22 0.3,-0.4 0.53,-0.52 0.23,-0.12 0.5,-0.18 0.82,-0.18 0.32,0 0.59,0.06 0.82,0.18 0.23,0.12 0.41,0.29 0.53,0.52 0.12,0.22 0.19,0.49 0.19,0.8l0 2.07c0,0.31 -0.06,0.57 -0.19,0.79 -0.13,0.23 -0.3,0.4 -0.53,0.52 -0.23,0.12 -0.5,0.18 -0.82,0.18zm0 -0.89c0.19,0 0.35,-0.06 0.46,-0.17 0.11,-0.12 0.17,-0.27 0.17,-0.48l0 -1.98c0,-0.2 -0.06,-0.36 -0.17,-0.47 -0.11,-0.12 -0.26,-0.18 -0.46,-0.18 -0.19,0 -0.34,0.06 -0.46,0.18 -0.11,0.12 -0.17,0.27 -0.17,0.47l0 1.98c0,0.2 0.06,0.36 0.17,0.48 0.11,0.12 0.26,0.17 0.46,0.17z"/>
   <path id="_20" class="fil0" d="M100.41 29.43l0 -3.54 0.89 0 0 3.54 -0.89 0zm1.72 0l0 -2.32c0,-0.14 -0.04,-0.25 -0.11,-0.33 -0.07,-0.08 -0.18,-0.11 -0.32,-0.11 -0.13,0 -0.24,0.04 -0.3,0.11 -0.07,0.08 -0.1,0.19 -0.1,0.33l-0.07 -0.6c0.09,-0.22 0.2,-0.38 0.34,-0.5 0.14,-0.12 0.31,-0.17 0.51,-0.17 0.3,0 0.52,0.1 0.69,0.31 0.16,0.2 0.25,0.49 0.25,0.86l0 2.43 -0.89 0 -0 -0z"/>
   <path id="_21" class="fil0" d="M105.1 29.49c-0.43,0 -0.77,-0.12 -1.01,-0.35 -0.24,-0.23 -0.36,-0.56 -0.36,-0.98l0 -0.91c0,-0.45 0.12,-0.79 0.35,-1.03 0.23,-0.24 0.56,-0.37 0.98,-0.37 0.41,0 0.73,0.13 0.95,0.4 0.23,0.27 0.34,0.65 0.34,1.14l0 0.62 -1.97 -0 0 -0.62 1.13 0 0 -0.25c0,-0.15 -0.04,-0.27 -0.13,-0.36 -0.08,-0.09 -0.19,-0.13 -0.33,-0.13 -0.15,0 -0.27,0.05 -0.36,0.15 -0.08,0.1 -0.13,0.24 -0.13,0.42l0 0.96c0,0.17 0.05,0.3 0.13,0.39 0.09,0.09 0.22,0.14 0.38,0.14 0.12,0 0.22,-0.03 0.3,-0.09 0.08,-0.06 0.14,-0.15 0.18,-0.27l-0 0 0.75 0.28 -0 0c-0.07,0.28 -0.2,0.5 -0.41,0.64 -0.2,0.14 -0.47,0.22 -0.79,0.22l0 -0z"/>
   <polygon id="_22" class="fil0" points="106.76,29.43 106.76,28.54 107.65,28.54 107.65,29.43 "/>
   <g>
    <path class="fil0" d="M40.79 4.79c-0.25,1.08 -0.45,2.17 -0.63,3.27 -0.09,0.46 -0.17,0.95 -0.24,1.47 -0.07,0.52 -0.14,1.04 -0.21,1.57 -0.06,0.53 -0.12,1.05 -0.15,1.58 -0.04,0.53 -0.05,1.03 -0.05,1.51 0,0.49 0.02,0.95 0.07,1.37 0.04,0.42 0.12,0.78 0.23,1.08 0.11,0.3 0.25,0.54 0.42,0.71 0.17,0.17 0.39,0.26 0.65,0.26 0.3,0 0.56,-0.14 0.76,-0.41 0.2,-0.27 0.36,-0.64 0.48,-1.1 0.12,-0.46 0.2,-1 0.25,-1.61 0.05,-0.61 0.08,-1.25 0.08,-1.92 0,-0.91 -0.03,-1.82 -0.1,-2.74 -0.06,-0.92 -0.13,-1.75 -0.21,-2.5 -0.09,-0.87 -0.19,-1.71 -0.3,-2.53l3.66 -0.89c0.16,0.79 0.3,1.64 0.43,2.53 0.1,0.77 0.19,1.64 0.28,2.61 0.09,0.97 0.13,1.99 0.13,3.04 0,1.16 -0.08,2.3 -0.23,3.42 -0.15,1.13 -0.43,2.14 -0.82,3.03 -0.4,0.9 -0.94,1.62 -1.64,2.18 -0.69,0.56 -1.58,0.83 -2.66,0.83 -1.1,0 -2,-0.27 -2.7,-0.81 -0.7,-0.54 -1.25,-1.25 -1.66,-2.12 -0.4,-0.87 -0.68,-1.87 -0.83,-2.98 -0.15,-1.11 -0.23,-2.24 -0.23,-3.38 0,-1.07 0.05,-2.11 0.14,-3.11 0.09,-1 0.2,-1.9 0.31,-2.68 0.13,-0.91 0.28,-1.77 0.45,-2.58l4.31 0.89 0 -0zm12.63 8.25c0,-0.14 -0.02,-0.38 -0.05,-0.69 -0.04,-0.32 -0.11,-0.64 -0.22,-0.96 -0.11,-0.32 -0.26,-0.61 -0.47,-0.86 -0.2,-0.25 -0.48,-0.37 -0.82,-0.37 -0.39,0 -0.73,0.12 -1.01,0.37 -0.28,0.25 -0.52,0.57 -0.7,0.97 -0.19,0.4 -0.32,0.86 -0.41,1.38 -0.09,0.51 -0.13,1.04 -0.13,1.57 0,0.51 0.04,1 0.12,1.47 0.08,0.48 0.19,0.9 0.32,1.28 0.14,0.38 0.31,0.68 0.52,0.91 0.21,0.23 0.44,0.35 0.7,0.35 0.25,0 0.45,-0.05 0.61,-0.16 0.16,-0.11 0.28,-0.24 0.37,-0.39 0.09,-0.15 0.15,-0.31 0.18,-0.49 0.04,-0.17 0.05,-0.32 0.05,-0.45l-1.04 0c0.01,-0.19 0.02,-0.39 0.02,-0.61 0.01,-0.17 0.02,-0.38 0.02,-0.63l0 -1.34c0,-0.19 -0.01,-0.38 -0.02,-0.56l4.72 0.5c-0.01,0.13 -0.03,0.27 -0.04,0.41 -0.01,0.13 -0.02,0.28 -0.03,0.44 -0.01,0.17 -0.01,0.35 -0.01,0.55 0,0.2 0.01,0.41 0.02,0.62 0.01,0.21 0.04,0.42 0.07,0.62l-1.91 0 1.1 0.22 0 0.19c0,0.14 -0.01,0.37 -0.04,0.67 -0.03,0.3 -0.09,0.64 -0.18,1 -0.09,0.36 -0.24,0.73 -0.43,1.1 -0.19,0.38 -0.46,0.72 -0.8,1.03 -0.34,0.31 -0.76,0.56 -1.27,0.76 -0.51,0.19 -1.12,0.29 -1.84,0.29 -0.71,0 -1.34,-0.24 -1.88,-0.71 -0.55,-0.48 -1.01,-1.1 -1.39,-1.86 -0.38,-0.77 -0.66,-1.64 -0.86,-2.62 -0.19,-0.98 -0.29,-1.98 -0.29,-2.99 0,-0.95 0.09,-1.88 0.28,-2.79 0.19,-0.91 0.48,-1.72 0.87,-2.43 0.39,-0.71 0.88,-1.28 1.47,-1.71 0.59,-0.43 1.3,-0.65 2.12,-0.65 0.45,0 0.83,0.09 1.15,0.26 0.32,0.17 0.6,0.39 0.84,0.65l-0.04 -0.84 3.1 -0.06 -0.3 6.5 -2.47 0.09 0 -0zm2.88 -5.81c0.48,-0.14 0.98,-0.27 1.52,-0.39 0.46,-0.1 0.98,-0.19 1.56,-0.27 0.58,-0.08 1.17,-0.12 1.78,-0.12 0.74,0 1.38,0.07 1.93,0.22 0.55,0.14 1.01,0.35 1.39,0.61 0.38,0.26 0.66,0.56 0.84,0.9 0.19,0.34 0.28,0.7 0.28,1.09 0,0.61 -0.23,1.24 -0.7,1.91 -0.47,0.66 -1.18,1.29 -2.13,1.86 0.06,-0.01 0.12,-0.02 0.17,-0.02 0.07,-0.01 0.15,-0.02 0.23,-0.02 0.08,0 0.17,0 0.27,0 0.26,0 0.56,0.03 0.9,0.1 0.34,0.06 0.66,0.2 0.96,0.4 0.3,0.2 0.56,0.5 0.77,0.89 0.21,0.39 0.31,0.91 0.31,1.56 0,0.55 -0.12,1.04 -0.36,1.46 -0.24,0.43 -0.54,0.79 -0.9,1.1 -0.36,0.31 -0.75,0.57 -1.17,0.79 -0.72,0.39 -1.54,0.69 -2.45,0.91l-0.95 -1.58c0.04,0.39 0.09,0.75 0.13,1.07 0.04,0.32 0.08,0.61 0.11,0.86 0.03,0.27 0.06,0.53 0.09,0.76l-4.57 1.37c0.38,-2.99 0.66,-5.52 0.87,-7.59 0.2,-2.07 0.33,-3.56 0.39,-4.47 -0.14,0.06 -0.27,0.11 -0.39,0.15 -0.12,0.04 -0.21,0.09 -0.28,0.13 -0.1,0.04 -0.19,0.08 -0.26,0.11l-0.32 -3.77 0 0zm3.99 2.95c-0.06,0.29 -0.1,0.62 -0.12,1 -0.02,0.38 -0.03,0.78 -0.03,1.21l0 0.76c0.2,-0.23 0.41,-0.49 0.63,-0.77 0.22,-0.28 0.42,-0.56 0.6,-0.84 0.18,-0.28 0.33,-0.56 0.45,-0.82 0.12,-0.27 0.18,-0.51 0.18,-0.73 0,-0.26 -0.22,-0.39 -0.65,-0.39 -0.26,0 -0.56,0.04 -0.91,0.11 -0.35,0.07 -0.71,0.17 -1.08,0.28l0.93 0.2 0 -0zm-0.04 5.05c0.03,0.19 0.04,0.37 0.04,0.54l0.02 0.37c0.01,0.17 0.03,0.35 0.04,0.54 0.26,-0.03 0.54,-0.06 0.83,-0.11 0.3,-0.04 0.57,-0.12 0.83,-0.22 0.26,-0.1 0.47,-0.22 0.64,-0.37 0.17,-0.14 0.25,-0.32 0.25,-0.54 0,-0.22 -0.08,-0.37 -0.24,-0.47 -0.16,-0.09 -0.36,-0.14 -0.61,-0.14 -0.29,0 -0.6,0.04 -0.93,0.13 -0.33,0.09 -0.63,0.17 -0.89,0.26l0 0zm13.32 -0.82c-0.23,-0.04 -0.53,-0.06 -0.89,-0.06 -0.51,0 -1.07,0.04 -1.7,0.12 -0.63,0.08 -1.24,0.17 -1.83,0.27l1.3 0c-0.03,0.43 -0.06,0.84 -0.1,1.21 -0.04,0.38 -0.07,0.7 -0.1,0.97 -0.03,0.33 -0.06,0.64 -0.11,0.91 0.03,-0.01 0.12,-0.04 0.28,-0.09 0.16,-0.04 0.35,-0.1 0.57,-0.16 0.22,-0.07 0.48,-0.14 0.76,-0.22 0.28,-0.08 0.57,-0.16 0.86,-0.23 0.68,-0.17 1.44,-0.37 2.3,-0.58l0.52 3.77c-0.49,0.03 -1,0.08 -1.54,0.16 -0.53,0.08 -1.07,0.17 -1.59,0.28 -0.53,0.11 -1.04,0.22 -1.55,0.35 -0.51,0.12 -0.99,0.25 -1.45,0.38 -1.08,0.3 -2.14,0.63 -3.16,0.97 0.17,-0.52 0.32,-1.08 0.44,-1.68 0.12,-0.6 0.23,-1.22 0.31,-1.85 0.09,-0.64 0.16,-1.28 0.22,-1.93 0.06,-0.65 0.1,-1.29 0.13,-1.91 -0.09,0.03 -0.17,0.05 -0.24,0.05 -0.07,0.01 -0.14,0.02 -0.19,0.03 -0.06,0.01 -0.11,0.03 -0.15,0.04l0 -0.06c0,-0.14 -0.03,-0.36 -0.08,-0.66 -0.05,-0.3 -0.11,-0.6 -0.18,-0.9 -0.07,-0.36 -0.16,-0.74 -0.26,-1.15 0.38,-0.09 0.77,-0.17 1.19,-0.26l0 -0.58c0,-0.32 -0,-0.61 -0.01,-0.87 -0.01,-0.26 -0.01,-0.49 -0.01,-0.69 -0.32,0.03 -0.55,0.05 -0.69,0.06 -0.1,0 -0.19,0.01 -0.26,0.02l0 -0.17c0,-0.2 -0.01,-0.46 -0.03,-0.77 -0.02,-0.31 -0.05,-0.61 -0.08,-0.9 -0.03,-0.35 -0.07,-0.71 -0.11,-1.1 0.48,-0.12 1.03,-0.22 1.66,-0.3 0.63,-0.09 1.27,-0.16 1.94,-0.21 0.66,-0.05 1.32,-0.09 1.98,-0.12 0.66,-0.03 1.25,-0.05 1.78,-0.08 0.53,-0.02 0.96,-0.03 1.31,-0.03l0.63 0 -0.69 4.12c-0.91,-0.23 -1.83,-0.39 -2.75,-0.47 -0.92,-0.08 -1.78,-0.12 -2.56,-0.12l-0.13 0 1.21 0.39c0.01,0.23 0.02,0.45 0.02,0.67 0,0.22 0,0.43 0,0.65 0.49,-0.07 0.95,-0.13 1.39,-0.18 0.43,-0.05 0.82,-0.09 1.15,-0.12 0.39,-0.04 0.75,-0.08 1.08,-0.11l-0.58 3.12 -0 -0zm11.57 -7.19c0.03,0.14 0.06,0.3 0.09,0.48 0.01,0.16 0.03,0.34 0.04,0.55 0.01,0.21 0.02,0.44 0.02,0.68 0,0.39 -0.03,0.81 -0.09,1.25 -0.06,0.44 -0.16,0.88 -0.31,1.32 -0.15,0.44 -0.37,0.86 -0.65,1.26 -0.28,0.4 -0.64,0.74 -1.07,1.03 0.32,0.14 0.61,0.34 0.89,0.6 0.27,0.25 0.51,0.57 0.71,0.96 0.2,0.39 0.36,0.86 0.48,1.4 0.12,0.54 0.17,1.18 0.17,1.92 0,0.2 0,0.41 0,0.62 0,0.21 -0.01,0.43 -0.04,0.66l-4.33 0.93c0.1,-0.3 0.19,-0.63 0.26,-0.97 0.07,-0.29 0.13,-0.62 0.18,-0.99 0.05,-0.37 0.08,-0.74 0.08,-1.12 0,-0.33 -0.03,-0.66 -0.09,-0.97 -0.06,-0.32 -0.16,-0.6 -0.31,-0.84 -0.15,-0.25 -0.35,-0.44 -0.61,-0.6 -0.25,-0.15 -0.57,-0.23 -0.96,-0.23 -0.07,0 -0.15,0 -0.24,0.01 -0.09,0.01 -0.17,0.02 -0.26,0.03 0.01,1.1 0.04,2.09 0.08,2.98 0.04,0.89 0.08,1.66 0.12,2.31 0.06,0.74 0.12,1.4 0.17,1.99l-4.18 -1.28c0.04,-0.78 0.08,-1.58 0.12,-2.4 0.04,-0.82 0.07,-1.64 0.11,-2.44 0.04,-0.8 0.07,-1.59 0.11,-2.36 0.04,-0.77 0.07,-1.5 0.1,-2.18 0.07,-1.59 0.14,-3.14 0.22,-4.66l3.6 -0.71c-0.13,1.23 -0.23,2.4 -0.29,3.53 -0.06,1.13 -0.11,2.21 -0.14,3.25 0.23,-0.12 0.48,-0.27 0.76,-0.47 0.27,-0.19 0.53,-0.45 0.77,-0.76 0.24,-0.31 0.44,-0.69 0.61,-1.13 0.17,-0.44 0.25,-0.96 0.25,-1.57 0,-0.4 -0.04,-0.84 -0.13,-1.31 -0.09,-0.47 -0.23,-0.99 -0.43,-1.55l4.22 0.78 0 -0zm5.61 0c-0.25,0.94 -0.45,1.88 -0.63,2.82 -0.16,0.82 -0.31,1.71 -0.44,2.65 -0.14,0.95 -0.21,1.83 -0.21,2.65 0,0.42 0.02,0.81 0.06,1.17 0.04,0.36 0.12,0.68 0.23,0.94 0.11,0.27 0.25,0.48 0.42,0.63 0.17,0.15 0.39,0.23 0.65,0.23 0.3,0 0.56,-0.12 0.76,-0.36 0.2,-0.24 0.36,-0.56 0.48,-0.95 0.12,-0.4 0.2,-0.86 0.25,-1.39 0.05,-0.53 0.08,-1.08 0.08,-1.66 0,-0.78 -0.03,-1.57 -0.1,-2.36 -0.06,-0.79 -0.13,-1.52 -0.21,-2.17 -0.09,-0.77 -0.19,-1.5 -0.3,-2.21l3.66 -0.76c0.16,0.68 0.3,1.4 0.43,2.17 0.1,0.66 0.19,1.42 0.28,2.26 0.09,0.84 0.13,1.72 0.13,2.63 0,1 -0.08,1.98 -0.23,2.96 -0.15,0.97 -0.43,1.85 -0.82,2.63 -0.4,0.78 -0.94,1.41 -1.64,1.88 -0.69,0.48 -1.58,0.71 -2.66,0.71 -1.1,0 -2,-0.23 -2.7,-0.7 -0.7,-0.47 -1.25,-1.08 -1.66,-1.84 -0.4,-0.76 -0.68,-1.62 -0.83,-2.58 -0.15,-0.96 -0.23,-1.93 -0.23,-2.91 0,-0.92 0.05,-1.82 0.14,-2.68 0.09,-0.86 0.2,-1.63 0.31,-2.31 0.13,-0.79 0.28,-1.54 0.45,-2.23l4.31 0.76 -0 -0zm10.22 -0.76c0.22,0.53 0.43,1.1 0.63,1.7 0.2,0.6 0.4,1.2 0.58,1.81 0.19,0.61 0.36,1.2 0.53,1.79 0.17,0.58 0.31,1.14 0.44,1.68 0.32,1.24 0.61,2.48 0.89,3.7 0,-1.17 -0.04,-2.38 -0.13,-3.64 -0.09,-1.26 -0.19,-2.41 -0.3,-3.47 -0.13,-1.23 -0.27,-2.43 -0.43,-3.6l3.57 0.84c0.1,0.74 0.17,1.47 0.22,2.21 0.04,0.74 0.07,1.47 0.07,2.19 0,1.13 -0.04,2.2 -0.11,3.22 -0.07,1.02 -0.16,1.92 -0.26,2.7 -0.1,0.9 -0.22,1.73 -0.37,2.51 -0.3,0.07 -0.67,0.15 -1.1,0.24 -0.36,0.09 -0.81,0.19 -1.35,0.31 -0.54,0.12 -1.18,0.26 -1.92,0.42 -0.16,-1.33 -0.34,-2.56 -0.54,-3.7 -0.2,-1.14 -0.4,-2.14 -0.58,-3.01 -0.22,-1 -0.43,-1.91 -0.65,-2.75l0 0.65c0,1.43 0.04,2.76 0.12,4 0.08,1.23 0.17,2.31 0.27,3.24 0.12,1.08 0.25,2.07 0.39,2.97l-4.01 -1.1c-0.12,-1.23 -0.2,-2.38 -0.25,-3.44 -0.05,-1.07 -0.08,-2.07 -0.08,-3.01 0,-1.23 0.03,-2.32 0.1,-3.27 0.06,-0.95 0.13,-1.75 0.21,-2.4 0.07,-0.78 0.17,-1.46 0.28,-2.04l3.79 -0.74 -0 0z"/>
    <path class="fil1" d="M109.85 3.11c1.27,0 2.29,1.03 2.29,2.29 0,1.27 -1.03,2.29 -2.29,2.29 -1.27,0 -2.29,-1.03 -2.29,-2.29 0,-1.27 1.03,-2.29 2.29,-2.29zm0 0.47c1.01,0 1.83,0.82 1.83,1.83 0,1.01 -0.82,1.83 -1.83,1.83 -1.01,0 -1.83,-0.82 -1.83,-1.83 0,-1.01 0.82,-1.83 1.83,-1.83z"/>
    <path class="fil0" d="M108.96 6.09l0 -1.14 -0.41 0 0 -0.23 1.09 0 0 0.23 -0.4 0 0 1.14 -0.28 0 -0 0zm0.86 0l0 -1.37 0.42 0 0.25 0.94 0.24 -0.94 0.42 0 0 1.37 -0.26 0 -0 -1.08 -0.27 1.08 -0.27 0 -0.27 -1.08 -0 1.08 -0.26 0 -0 0z"/>
   </g>
  </g>
  <g id="_2600096927840">
   <g>
    <path class="fil1" d="M18.44 18.93c0.67,0 1.57,-0.14 2.01,-0.35 -0.15,-1.8 -2.14,-2.29 -3.14,-0.79 -1.32,-0.35 -0.64,-2.46 -1.05,-4.19l-0.26 0c-0.17,1.99 -0.58,4.05 0.84,4.83 0.35,0.2 1.11,0.49 1.6,0.49l0 -0z"/>
    <path class="fil1" d="M13.28 17.88c-0.17,-0.32 -0.15,-0.44 -0.48,-0.65 -1.03,-0.66 -2.66,-0.36 -2.66,1.44 2.09,0.49 4.72,0.3 4.72,-2.36 0,-0.76 0.1,-2.23 -0.17,-2.79 -0.46,0.31 -0.19,0.35 -0.34,1.67 -0.07,0.66 0.07,1.7 -0.57,2.4 -0.14,0.16 -0.28,0.24 -0.49,0.3l0 0z"/>
    <path class="fil1" d="M12.5 23.3c0,0.83 0.3,0.79 1.03,0.89 2.94,0.39 1.44,0.13 3.43,-0.01 0.5,-0.04 1.05,0.09 1.13,-0.88 -0.63,-0.05 -1.25,-0.6 -1.83,-0.59 -0.24,0 -0.66,0.2 -0.96,0.2 -0.29,0 -0.8,-0.22 -0.96,-0.22 -0.6,0 -1.24,0.56 -1.83,0.61l0 -0z"/>
    <path class="fil1" d="M12.76 21.38l1.83 0.09c0.19,0.83 1.07,1.05 1.31,0l1.92 -0.09c-0.13,-1.53 -1.79,-0.35 -2.53,-0.35 -0.92,0 -2.53,-1.21 -2.53,0.35l0 0z"/>
    <path class="fil1" d="M15.12 26.62c1.17,0 2.18,-0.53 2.27,-1.57 -0.31,0.07 -0.56,0.24 -0.88,0.34 -0.77,0.24 -1.59,0.25 -2.36,0.02 -0.38,-0.11 -0.62,-0.29 -0.95,-0.36 0.02,0.92 0.94,1.57 1.92,1.57z"/>
   </g>
   <path class="fil1" d="M6.56 21.44l1.76 1.29 0.61 1.49 -2.33 -1.4 0.1 2 2.6 0.83 0.54 0.96 -2.94 -0.63 0.35 1.63 3.24 0.11 0.51 0.9 -3.17 0.34 0.57 1.1 2.94 -0.99 0.59 0.6 -2.77 1.61 0.98 1.13 2.25 -2.36 0.69 0.33 -1.97 2.69c0.47,0.53 0.95,0.5 1.76,0.65l1 -2.95 0.87 0.09 -0.77 3.11 1.13 0.05 0 0 0.02 -0 0.02 0 0 -0 1.13 -0.05 -0.77 -3.11 0.87 -0.09 1 2.95c0.81,-0.15 1.29,-0.12 1.76,-0.65l-1.97 -2.69 0.69 -0.33 2.25 2.36 0.98 -1.13 -2.77 -1.61 0.59 -0.6 2.94 0.99 0.57 -1.1 -3.17 -0.34 0.51 -0.9 3.24 -0.11 0.35 -1.63 -2.95 0.63 0.54 -0.96 2.61 -0.83 0.1 -2 -2.34 1.4 0.61 -1.49 1.76 -1.29 0.02 -1.68 -1.91 0.03c-0.51,3.9 -2.86,9.51 -6.62,9.65 -3.76,-0.14 -6.19,-5.75 -6.7,-9.65l-1.91 -0.03 0.02 1.68 -0 0z"/>
   <path class="fil1" d="M6.53 9.08l-1.94 -0.79c0,0 -0.55,3.02 -0.34,3.92 0.16,0.69 0.18,0.18 0.43,0.69 0.07,0.14 0.16,0.35 0.28,0.66 0.42,1.1 0.36,1.39 -0.01,1.86 -0.1,0.12 -0.22,0.26 -0.36,0.43 -0.67,0.81 0.31,-0.7 -0.86,-0.7 -1.17,0 -0.4,-0.09 -0.73,-1.29 -0.09,-0.32 0.56,-0.58 0.64,-0.83 0.2,-0.62 0.33,-4.85 0.33,-4.85l-3.96 -1.52 15.39 -6.67 15.61 6.34 -6.77 2.82c0,0 -0.21,3.24 -0.26,4.96 -0.01,0.36 -0.03,0.51 -0.02,0.71 0,0.05 -0.13,0.79 -0.21,1.26 0.67,1.23 -0.61,3.64 -1.33,4.18l0.09 -4.89c0.16,0.02 0.3,0.05 0.43,0.09 -0.24,-0.49 -0.5,-1.03 -0.72,-1.35 -2.05,-2.93 -12.16,-2.86 -13.92,0 -0.3,0.49 -0.67,1.03 -0.96,1.43 0.18,-0.09 0.39,-0.15 0.64,-0.18l0.14 4.2 0.02 0.69c-0.78,-0.56 -2.14,-3.11 -1.3,-4.3l-0.31 -1.85 0 -5.04 0 -0z"/>
  </g>
 </g>
</svg>
