<svg width="150" height="36" viewBox="0 0 150 36" fill="none" xmlns="http://www.w3.org/2000/svg">
<path d="M24.83 20.24V12.32H28.43V20.24C28.43 22.25 29.21 23.21 30.74 23.21C32.27 23.21 33.05 22.25 33.05 20.24V12.32H36.65V20.24C36.65 23.84 34.55 25.85 30.74 25.85C26.93 25.85 24.83 23.84 24.83 20.24Z" fill="#122B5E"/>
<path d="M42.2139 25.52H46.4139L48.2739 20.48H52.5339L46.8939 34H41.7339L36.0939 20.48H40.3539L42.2139 25.52Z" fill="#122B5E"/>
<path d="M57.448 20.24V12.32H61.048V20.24C61.048 22.25 61.828 23.21 63.358 23.21C64.888 23.21 65.668 22.25 65.668 20.24V12.32H69.268V20.24C69.268 23.84 67.168 25.85 63.358 25.85C59.548 25.85 57.448 23.84 57.448 20.24Z" fill="#122B5E"/>
<path d="M72.2319 12.32H79.8819V14.96H75.8319V18.68H79.2819V21.32H75.8319V25.52H72.2319V12.32Z" fill="#122B5E"/>
<path d="M82.8335 12.32H86.4335V22.88L92.7335 12.32H96.9335V25.52H93.3335V14.96L87.0335 25.52H82.8335V12.32Z" fill="#122B5E"/>
<path d="M106.914 12.32V25.52H103.314V12.32H106.914Z" fill="#122B5E"/>
<path d="M110.158 12.32H113.758L117.568 21.44L121.378 12.32H124.978V25.52H121.378V16.4L118.588 23.36H116.548L113.758 16.4V25.52H110.158V12.32Z" fill="#122B5E"/>
<path d="M136.639 12.32H140.239V22.88L146.539 12.32H150.739V25.52H147.139V14.96L140.839 25.52H136.639V12.32Z" fill="#122B5E"/>
<path d="M18 0L0 8V17L18 26L36 17V8L18 0ZM16.5 12.98L4.24 9.67L3.76 9.88V14C3.76 17.87 8.26 18.87 11.26 17.87V12H13.26V17.87C16.26 18.87 21.26 16.87 21.26 14V9.88L16.5 12.98Z" fill="#122B5E"/>
</svg>
